<svg width="117.917969" height="134.000488" viewBox="0 0 117.918 134" fill="none" xmlns="http://www.w3.org/2000/svg" xmlns:xlink="http://www.w3.org/1999/xlink">
	<desc>
			Created with Pixso.
	</desc>
	<defs/>
	<path id="Vector" d="M52.1249 131.856C52.1677 133.051 53.1757 134 54.4031 134L54.4728 134C55.7269 133.962 56.7183 132.938 56.6754 131.716C56.386 124.872 55.0569 118.107 52.7307 111.638C56.8578 111.938 61.001 111.938 65.1281 111.638C62.818 118.113 61.5046 124.882 61.226 131.732C61.1937 132.955 62.1907 133.967 63.4449 134C64.7045 134.032 65.7443 133.062 65.7765 131.839C66.0391 125.44 67.2719 119.11 69.4319 113.059C70.2466 110.743 68.9711 108.224 66.5966 107.436C66.0284 107.249 65.4335 107.173 64.8385 107.211C60.9258 107.49 57.0027 107.49 53.09 107.211C50.5868 107.045 48.416 108.894 48.2499 111.333C48.207 111.922 48.2874 112.512 48.4857 113.069C50.6296 119.126 51.8568 125.456 52.1249 131.856Z" fill="#01457A" fill-opacity="1.000000" fill-rule="evenodd"/>
	<path id="Vector" d="M117.328 8.86133C116.556 7.99316 115.312 7.99805 114.551 8.87207C111.132 13.1436 108.57 18.2036 107.047 23.7134C104.11 19.8008 100.755 16.3223 97.0565 13.353C102.207 11.4873 106.854 8.15381 110.547 3.67285C111.239 2.72412 111.126 1.31445 110.296 0.526367C109.465 -0.250488 108.238 -0.132812 107.541 0.794434C104.689 4.64844 99.7419 7.82666 92.8652 10.2603C82.5796 3.46387 70.8792 -0.0791016 58.9802 0.00146484C47.0813 -0.0737305 35.386 3.46924 25.1057 10.271C18.2183 7.83203 13.2657 4.65381 10.4089 0.794434C9.70679 -0.143555 8.46875 -0.250488 7.64331 0.547852C6.82324 1.34131 6.71594 2.72949 7.40747 3.67285C11.1057 8.15918 15.7579 11.4932 20.9141 13.3584C17.2158 16.333 13.8553 19.8223 10.9127 23.7402C9.3905 18.2251 6.82849 13.1489 3.40356 8.87207C2.66382 7.97168 1.42041 7.92334 0.627075 8.75928C-0.166138 9.60107 -0.214355 11.0103 0.525391 11.9165C0.552124 11.9482 0.584229 11.9805 0.611084 12.0127C4.1593 16.6118 6.69434 22.0947 8.01819 28.0176C2.93701 36.1377 0.155396 45.8232 0.0428467 55.7817C-0.0643311 73.3516 10.3446 90.7764 28.5951 103.586C37.3799 109.98 43.3455 120.32 44.9962 132.021C45.1195 133.243 46.0951 134.122 47.1724 133.982C48.2498 133.843 49.0214 132.739 48.8981 131.511C48.8927 131.458 48.8876 131.404 48.8768 131.351C47.0383 118.364 40.4133 106.888 30.6583 99.7915C22.5917 94.1265 3.83777 78.502 3.9718 55.814C4.14331 27.5029 28.8202 4.46631 58.9802 4.46631C89.1779 4.46631 113.855 27.4976 113.989 55.814C114.096 77.6392 97.3246 92.7324 87.3123 99.7808C77.5626 106.877 70.9325 118.353 69.0834 131.334C68.9172 132.557 69.657 133.693 70.7236 133.88C70.8254 133.896 70.9271 133.907 71.0236 133.907C71.9938 133.902 72.8192 133.098 72.9639 132.01C74.6309 120.309 80.6018 109.97 89.3867 103.576C100.09 96.0342 118.035 79.7886 117.917 55.7979C117.821 45.8228 115.039 36.127 109.947 27.9961C111.271 22.084 113.806 16.6064 117.349 12.0127C118.11 11.1392 118.1 9.72412 117.328 8.86133Z" fill="#01457A" fill-opacity="1.000000" fill-rule="evenodd"/>
	<path id="Vector" d="M107.198 56.2803C107.198 31.1582 85.5651 10.7212 58.9586 10.7212C32.3522 10.7212 10.7197 31.1582 10.7197 56.2803C10.7197 81.4019 32.3575 101.839 58.9586 101.839C85.5597 101.839 107.198 81.4019 107.198 56.2803ZM103.301 56.2803C103.285 61.8438 102.089 67.3164 99.8169 72.2046C87.5857 73.3623 75.4404 68.9937 65.8783 60C77.1073 52.748 89.6921 48.8462 102.524 48.6426C103.038 51.1455 103.296 53.7075 103.301 56.2803ZM58.9586 15.2773C78.8385 15.2773 95.7114 27.4438 101.318 44.1509C87.6877 44.5259 74.363 48.9316 62.582 56.9663C49.6541 45.9839 38.9233 41.0151 16.9746 43.1162C22.9135 26.9512 39.4862 15.2773 58.9586 15.2773ZM14.6163 56.2803C14.6217 53.4341 14.9379 50.5986 15.5651 47.8491C38.2052 45.3462 48.0941 50.0845 61.1937 61.4204C70.7235 71.3574 83.0244 76.8887 95.797 76.9692C96.2794 76.9692 96.7725 76.9424 97.2495 76.9263C89.542 89.0825 75.2688 97.2832 58.9586 97.2832C34.5122 97.2832 14.6163 78.8882 14.6163 56.2803Z" fill="#01457A" fill-opacity="1.000000" fill-rule="evenodd"/>
	<path id="Vector" d="M32.1593 77.7188C32.1593 79.1978 30.9587 80.3984 29.4794 80.3984C28 80.3984 26.7994 79.1978 26.7994 77.7188C26.7994 76.2393 28 75.0386 29.4794 75.0386C30.9587 75.0386 32.1593 76.2393 32.1593 77.7188Z" fill="#01457A" fill-opacity="1.000000" fill-rule="evenodd"/>
	<path id="Vector" d="M21.0752 55.9785C21.0752 54.665 19.955 53.5986 18.5774 53.5986C17.1946 53.5986 16.0797 54.665 16.0797 55.9785C16.1387 62.4531 18.2986 68.7563 22.2542 74.0254C23.0475 75.0972 24.6021 75.3599 25.733 74.6094C26.8639 73.8535 27.1372 72.3691 26.3494 71.2915C22.9565 66.8374 21.1127 61.4829 21.0752 55.9785Z" fill="#01457A" fill-opacity="1.000000" fill-rule="evenodd"/>
</svg>
