<svg width="81.462708" height="132.423340" viewBox="0 0 81.4627 132.423" fill="none" xmlns="http://www.w3.org/2000/svg" xmlns:xlink="http://www.w3.org/1999/xlink">
	<desc>
			Created with Pixso.
	</desc>
	<defs/>
	<path id="Vector" d="M74.7502 81.1006C74.7525 81.1069 74.7548 81.1133 74.757 81.1187C75.1467 82.1562 75.9744 82.7646 76.8521 82.7646C77.1656 82.7646 77.4861 82.6865 77.7943 82.5234C78.9686 81.9038 79.4758 80.313 78.9509 78.9023C78.4268 77.4922 77.0942 76.8687 75.9183 77.4834C74.7416 78.0991 74.2291 79.6875 74.7502 81.1006Z" fill="#01457A" fill-opacity="1.000000" fill-rule="evenodd"/>
	<path id="Vector" d="M80.8926 88.668C80.7012 87.2578 79.5607 86.2935 78.3465 86.5181C77.133 86.7407 76.3046 88.0649 76.4968 89.4766C76.9954 93.1504 77.133 96.896 76.9033 100.606C76.3714 109.21 72.6287 117.061 66.6358 122.149L65.1303 123.426C62.1823 125.928 58.6947 127.251 55.0435 127.251C53.7216 127.251 52.3998 127.072 51.1148 126.719L45.2164 125.101C33.8155 121.973 23.4167 114.622 15.9344 104.402C12.609 99.8594 11.1088 96.5547 9.95679 93.1504C10.049 92.8052 10.0821 92.4326 10.0383 92.0493C10.0267 91.938 8.93085 80.7671 22.4883 73.5957C31.7874 68.6782 36.1372 60.2671 37.6504 56.6411C47.8441 58.2759 51.353 61.6099 51.6136 61.8716C52.1516 62.5347 52.8947 62.748 53.6633 62.5464C53.8484 62.4985 54.0314 62.4512 54.2143 62.4067C61.3461 60.6675 68.7032 65.0815 71.7096 72.8984C72.2114 74.2031 73.5279 74.7871 74.6507 74.2046C75.7728 73.6211 76.2753 72.0918 75.7751 70.7876C74.0712 66.3613 71.207 62.6338 67.6418 60.1582C67.6434 60.1494 67.6464 60.1406 67.6495 60.1323C68.0983 58.4658 68.3251 56.7275 68.3251 54.9678C68.3251 54.6152 68.3127 54.2661 68.2951 53.9185L69.8398 53.9185C71.0679 53.9185 72.0654 52.7607 72.0654 51.332C72.0654 49.9033 71.0679 48.7461 69.8398 48.7461L67.3237 48.7461C66.7511 47.0303 65.9526 45.4448 64.9651 44.0435L65.9733 42.873C66.8425 41.8623 66.8425 40.2246 65.9733 39.2139C65.1034 38.2051 63.6947 38.2051 62.8255 39.2139L61.6604 40.5679C59.8552 39.1763 57.7748 38.2295 55.5353 37.8638C58.4841 35.1221 62.3582 33.8237 67.08 34.0107C67.6826 34.0376 68.2681 33.7729 68.7031 33.2856C69.1365 32.7983 69.3818 32.1274 69.3818 31.4268L69.3818 21.5742C69.3818 20.2285 68.4941 19.1084 67.3391 18.9971C66.9778 18.9624 62.8101 18.5938 57.3906 19.3511C54.9674 13.9028 51.556 9.85547 47.6334 7.60889L49.2089 4.87598C49.8929 3.68896 49.6193 2.08252 48.5972 1.28809C47.5765 0.493652 46.194 0.810547 45.51 1.99756L43.2545 5.91016C42.293 5.70459 41.3132 5.59424 40.321 5.59424C39.7484 5.59424 39.179 5.63135 38.6149 5.70117L38.6149 2.58643C38.6149 1.15771 37.6181 0 36.3892 0C35.1596 0 34.1628 1.15771 34.1628 2.58643L34.1628 7.00977C32.0748 7.99756 30.0966 9.48975 28.2898 11.4658C26.938 12.9443 25.7214 14.6533 24.6547 16.5498C23.8201 14.6367 22.1102 13.3203 20.1412 13.3203L14.0991 13.3203C11.3094 13.3203 9.04071 15.957 9.04071 19.1982L9.04071 45.6362C7.92023 46.6479 6.84045 47.8335 5.80762 49.2026C0.928284 55.6689 -0.0431519 64.1436 0.00146484 70.1133C0.0521851 76.8662 1.45697 83.751 3.67725 88.165C4.01306 89.2095 4.31512 90.2168 4.60791 91.1943C6.10419 96.1787 7.51678 100.888 12.5436 107.754C20.6362 118.808 31.8757 126.756 44.1935 130.135L50.0912 131.753C51.712 132.198 53.3781 132.423 55.0435 132.423C59.6454 132.423 64.0413 130.756 67.7556 127.604L69.2603 126.327C76.3138 120.339 80.7182 111.101 81.3437 100.978C81.5974 96.874 81.4451 92.7329 80.8926 88.668ZM53.7301 57.2456C52.8325 56.5195 51.3031 55.4863 48.913 54.4497C49.0975 51.9604 49.7192 47.2695 51.8096 43.0166C52.3506 42.917 52.9039 42.8643 53.4557 42.8643C59.1996 42.8643 63.873 48.2954 63.873 54.9692C63.873 55.9961 63.7608 57.0107 63.5433 57.9946C60.3839 56.8032 57.0001 56.5361 53.7301 57.2456ZM64.9297 24.0679L64.9297 28.8525C59.4156 29.1299 54.866 31.27 51.3831 35.2285C46.4914 40.7905 45.0159 48.5161 44.5732 52.9062C42.4444 52.2891 39.916 51.7319 36.9241 51.3164C36.2471 50.5884 35.5731 49.9014 34.9022 49.2529C34.9052 49.1899 34.9099 49.1284 34.9099 49.0645C34.9099 42.1177 36.8419 36.5254 40.6514 32.4424C47.8955 24.6782 60.1096 24.0127 64.9297 24.0679ZM40.321 10.7671C41.4361 10.7671 42.5351 10.958 43.6049 11.3208L43.6079 11.3213C47.1554 12.5259 50.3694 15.6543 52.7295 20.252C47.5558 21.5479 41.9572 24.0122 37.6465 28.6255C33.5411 33.0166 31.1802 38.7236 30.6008 45.6206C28.7794 44.3076 26.9764 43.2979 25.1996 42.5977L25.1996 27.6416C25.238 27.5376 25.2734 27.4321 25.3011 27.3208C27.7557 17.4199 33.7916 10.7671 40.321 10.7671ZM13.492 19.1982C13.492 18.8091 13.764 18.4927 14.0991 18.4927L20.1412 18.4927C20.4755 18.4927 20.7476 18.8091 20.7476 19.1982L20.7476 41.4849C20.0021 41.4082 19.262 41.3887 18.5266 41.4263C16.7851 41.5171 15.1052 41.9312 13.492 42.6602L13.492 19.1982ZM9.15527 52.6133C12.0326 48.7988 15.2519 46.7749 18.7249 46.5942C23.153 46.3638 28.2483 49.1606 33.5034 54.6934C32.1439 57.792 28.3628 64.8057 20.6446 68.8877C12.1263 73.3936 8.48969 79.5054 6.93884 83.8389C6.91272 83.9126 6.88885 83.9839 6.86273 84.0566C4.04846 76.8145 2.53601 61.3853 9.15527 52.6133Z" fill="#01457A" fill-opacity="1.000000" fill-rule="evenodd"/>
	<path id="Vector" d="M28.1537 103.849C27.23 102.945 25.8597 103.097 25.0928 104.185C24.3273 105.273 24.4541 106.889 25.3779 107.791C31.2585 113.54 38.3005 117.672 45.7429 119.743C45.9111 119.79 46.0787 119.812 46.2447 119.812C47.2292 119.812 48.1222 119.017 48.3582 117.839C48.634 116.462 47.9101 115.083 46.7419 114.758C39.9482 112.868 33.5211 109.094 28.1537 103.849Z" fill="#01457A" fill-opacity="1.000000" fill-rule="evenodd"/>
	<path id="Vector" d="M19.239 96.8325C18.2814 97.8247 18.173 99.5503 19.0015 100.695C19.4557 101.347 20.1074 101.683 20.7645 101.683C21.2825 101.683 21.8028 101.474 22.2308 101.046C23.203 100.077 23.3345 98.3457 22.5244 97.1816L22.4775 97.1162C21.6483 95.9702 20.195 95.8394 19.239 96.8325Z" fill="#01457A" fill-opacity="1.000000" fill-rule="evenodd"/>
</svg>
