<svg width="80.000000" height="80.000000" viewBox="0 0 80 80" fill="none" xmlns="http://www.w3.org/2000/svg" xmlns:xlink="http://www.w3.org/1999/xlink">
	<desc>
			Created with Pixso.
	</desc>
	<defs>
		<linearGradient id="paint_linear_0_5995_0" x1="0.000000" y1="32.500000" x2="80.000000" y2="32.500000" gradientUnits="userSpaceOnUse">
			<stop stop-color="#FDD966"/>
			<stop offset="0.685406" stop-color="#BCD77E"/>
		</linearGradient>
	</defs>
	<path id="Rectangle 2" d="M0 0L40 0C62.0914 0 80 17.9087 80 40C80 62.0913 62.0914 80 40 80C17.9086 80 0 62.0913 0 40L0 0Z" fill="url(#paint_linear_0_5995_0)" fill-opacity="1.000000" fill-rule="evenodd"/>
	<path id="Vector" d="M52.7402 58.3442L26.3582 58.3442C22.7607 58.3442 19.8484 55.4321 19.8484 51.8345C19.8484 49.6074 22.5037 48.2368 23.3603 47.8086L34.0673 43.0977C34.9238 42.9263 35.2664 42.6694 35.2664 41.4702C34.3242 40.3564 30.5554 35.6455 30.5554 31.6196C30.5554 25.4526 34.6668 20.4844 39.8062 20.4844C44.9455 20.4844 49.057 25.4526 49.057 31.5342C49.057 35.5596 45.1168 40.3564 44.1746 41.4702C44.089 42.7549 44.3459 42.9263 45.1168 43.1831L55.6525 46.8662C57.4512 47.5518 59.1644 49.9497 59.1644 51.7485C59.25 55.4321 56.3377 58.3442 52.7402 58.3442ZM34.5812 44.8105L24.0455 49.436C22.8463 50.0356 21.5615 50.978 21.5615 51.9199C21.5615 54.5752 23.7029 56.7168 26.3582 56.7168L52.7402 56.7168C55.3955 56.7168 57.5369 54.5752 57.5369 51.9199C57.5369 50.8066 56.2521 49.0933 55.1385 48.665L44.6885 44.8965C42.7184 44.2109 42.3759 42.9263 42.5472 41.1274L42.5472 40.8706L42.7184 40.6992C42.8041 40.6133 47.3439 35.4741 47.3439 31.7051C47.3439 26.6514 43.9177 22.3687 39.8062 22.3687C35.6947 22.3687 32.2685 26.6514 32.2685 31.791C32.2685 35.5596 36.7226 40.6992 36.7226 40.6992L36.8939 40.9561L36.8939 41.2129C37.0652 43.269 36.3799 44.2969 34.5812 44.8105Z" fill="#01457A" fill-opacity="1.000000" fill-rule="nonzero"/>
</svg>
