<svg width="80.000000" height="80.000000" viewBox="0 0 80 80" fill="none" xmlns="http://www.w3.org/2000/svg" xmlns:xlink="http://www.w3.org/1999/xlink">
	<desc>
			Created with Pixso.
	</desc>
	<defs>
		<linearGradient id="paint_linear_0_6021_0" x1="0.000000" y1="32.500000" x2="80.000000" y2="32.500000" gradientUnits="userSpaceOnUse">
			<stop stop-color="#FDD966"/>
			<stop offset="0.685406" stop-color="#BCD77E"/>
		</linearGradient>
	</defs>
	<path id="Rectangle 2" d="M0 0L40 0C62.0914 0 80 17.9087 80 40C80 62.0913 62.0914 80 40 80C17.9086 80 0 62.0913 0 40L0 0Z" fill="url(#paint_linear_0_6021_0)" fill-opacity="1.000000" fill-rule="evenodd"/>
	<path id="Vector" d="M56.0043 56.0044C64.6842 47.3242 64.6842 33.2007 56.0043 24.5205C51.7997 20.3159 46.2089 18 40.2622 18C34.3155 18 28.725 20.3159 24.5201 24.52C20.3157 28.7246 18 34.3154 18 40.2622C18 46.209 20.3159 51.7993 24.5201 56.0044C28.7247 60.209 34.3155 62.5244 40.2622 62.5244C46.2089 62.5244 51.7994 60.2085 56.0043 56.0044ZM25.6414 54.8833C21.7365 50.978 19.5854 45.7856 19.5854 40.2627C19.5854 34.7393 21.7363 29.5474 25.6414 25.6416C29.5463 21.7363 34.7391 19.5859 40.2622 19.5859C45.7853 19.5859 50.9776 21.7368 54.8831 25.6416C62.9446 33.7036 62.9446 46.8218 54.8831 54.8833C50.9776 58.7891 45.7853 60.9395 40.2622 60.9395C34.7391 60.9395 29.5469 58.7891 25.6414 54.8833Z" fill="#01457A" fill-opacity="1.000000" fill-rule="nonzero"/>
	<path id="Vector" d="M38.7875 42.8584L51.1478 30.4985L51.1478 35.5913C51.1478 36.0293 51.5028 36.3838 51.9405 36.3838C52.3781 36.3838 52.7332 36.0293 52.7332 35.5913L52.7332 28.5845C52.7332 28.4819 52.712 28.3853 52.6771 28.2954C52.6756 28.2915 52.675 28.2876 52.6733 28.2832C52.593 28.0879 52.4371 27.9321 52.2421 27.8521C52.2377 27.8501 52.2336 27.8496 52.2299 27.8481C52.14 27.8125 52.0428 27.792 51.9409 27.792L44.9336 27.792C44.496 27.792 44.1409 28.1465 44.1409 28.585C44.1409 29.0229 44.496 29.3774 44.9336 29.3774L50.0264 29.3774L37.0659 42.3374L38.2338 48.1768L31.5274 54.8833C31.2178 55.1929 31.2178 55.6948 31.5274 56.0044C31.6823 56.1592 31.8853 56.2363 32.088 56.2363C32.291 56.2363 32.4938 56.1592 32.6487 56.0044L39.9553 48.6978L38.7875 42.8584Z" fill="#01457A" fill-opacity="1.000000" fill-rule="nonzero"/>
</svg>
