<svg width="178.000000" height="145.000000" viewBox="0 0 178 145" fill="none" xmlns="http://www.w3.org/2000/svg" xmlns:xlink="http://www.w3.org/1999/xlink">
	<desc>
			Created with Pixso.
	</desc>
	<defs>
		<linearGradient id="paint_linear_0_6104_0" x1="98.000000" y1="97.500000" x2="178.000000" y2="97.500000" gradientUnits="userSpaceOnUse">
			<stop stop-color="#FDD966"/>
			<stop offset="0.685406" stop-color="#BCD77E"/>
		</linearGradient>
	</defs>
	<path id="Vector" d="M56.2613 74.3232L56.2613 96.459L51.3864 96.459C50.2005 96.459 49.1467 95.4048 49.1467 94.3506L49.1467 76.5635C49.1467 75.3774 50.201 74.3237 51.3864 74.3237L56.2613 74.3232Z" fill="#01457A" fill-opacity="1.000000" fill-rule="nonzero"/>
	<path id="Vector" d="M121.087 5.28125L120.691 8.83887L98.6876 6.20361L99.0831 2.64648C99.2148 0.933105 100.796 -0.120605 102.377 0.0112305L118.583 1.9873C120.164 2.25098 121.35 3.70068 121.087 5.28125L121.087 5.28125Z" fill="#01457A" fill-opacity="1.000000" fill-rule="nonzero"/>
	<path id="Vector" d="M125.171 18.5889L117.003 87.3672C115.948 95.8003 108.965 101.993 100.533 101.993L65.3529 101.993C63.3765 101.993 61.7956 100.412 61.7956 98.436L61.7956 72.479C61.7956 70.5029 63.3765 68.9219 65.3529 68.9219L80.1099 68.9219L79.3195 75.9053C79.1878 77.4863 80.2416 78.8037 81.823 79.0679L82.2184 79.0679C83.6677 79.0679 84.722 78.0137 84.9853 76.564L92.3637 14.769C92.627 12.7925 94.3401 11.4751 96.3165 11.6069L122.273 14.6372C123.986 14.7686 125.435 16.6133 125.172 18.5898L125.171 18.5889Z" fill="#01457A" fill-opacity="1.000000" fill-rule="nonzero"/>
	<path id="Vector" d="M4.61157 80.7798C7.24677 80.7798 9.22314 82.8877 9.22314 85.3916C9.22314 88.0264 7.11511 90.0029 4.61157 90.0029C1.97638 90.0029 0 87.895 0 85.3916C0 82.8877 2.10803 80.7798 4.61157 80.7798Z" fill="#01457A" fill-opacity="1.000000" fill-rule="nonzero"/>
	<path id="Vector" d="M18.7099 81.8335C20.8179 81.8335 22.3994 83.5464 22.3994 85.5229C22.3994 87.6309 20.6862 89.2124 18.7099 89.2124C16.6018 89.2124 15.0204 87.4995 15.0204 85.5229C14.8891 83.415 16.6017 81.8335 18.7099 81.8335Z" fill="#01457A" fill-opacity="1.000000" fill-rule="nonzero"/>
	<path id="Vector" d="M33.5987 85.5229C33.5987 87.0513 32.36 88.29 30.8318 88.29C29.3036 88.29 28.065 87.0513 28.065 85.5229C28.065 83.9951 29.3036 82.7563 30.8318 82.7563C32.36 82.7563 33.5987 83.9951 33.5987 85.5229Z" fill="#01457A" fill-opacity="1.000000" fill-rule="nonzero"/>
	<path id="Vector" d="M41.1089 83.6782C42.1631 83.6782 42.9536 84.4688 42.9536 85.5229C42.9536 86.5771 42.1632 87.3677 41.1089 87.3677C40.0547 87.3677 39.2642 86.5771 39.2642 85.5229C39.2646 84.4688 40.0551 83.6782 41.1089 83.6782Z" fill="#01457A" fill-opacity="1.000000" fill-rule="nonzero"/>
	<path id="Vector" d="M5.40201 74.8506C2.89847 74.1919 1.44922 71.688 2.10803 69.1846C2.76682 66.6812 5.27036 65.2319 7.7739 65.8906C10.2774 66.5493 11.7267 69.1846 11.0679 71.5566C10.5408 74.0596 7.90555 75.5093 5.40201 74.8506Z" fill="#01457A" fill-opacity="1.000000" fill-rule="nonzero"/>
	<path id="Vector" d="M19.2368 77.6172C17.2604 77.0898 16.0745 74.9819 16.6016 73.0054C17.1288 71.0293 19.2368 69.8433 21.2132 70.3706C23.1896 70.8975 24.3755 73.0054 23.8484 74.9819C23.3213 76.9585 21.2132 78.144 19.2368 77.6172Z" fill="#01457A" fill-opacity="1.000000" fill-rule="nonzero"/>
	<path id="Vector" d="M31.227 79.8574C29.7778 79.4619 28.8551 77.8809 29.2506 76.4316C29.6461 74.9824 31.227 74.0596 32.6763 74.4551C34.1255 74.8506 35.0482 76.4316 34.6526 77.8809C34.2576 79.3301 32.6767 80.2524 31.227 79.8574Z" fill="#01457A" fill-opacity="1.000000" fill-rule="nonzero"/>
	<path id="Vector" d="M41.3725 81.5703C40.3182 81.3066 39.7916 80.2524 40.0549 79.3306C40.3182 78.2764 41.3725 77.7495 42.2946 78.0127C43.3488 78.2764 43.8755 79.3306 43.6122 80.2524C43.3488 81.3066 42.2946 81.8335 41.3725 81.5703Z" fill="#01457A" fill-opacity="1.000000" fill-rule="nonzero"/>
	<path id="Vector" d="M5.40201 96.064C7.90555 95.4053 10.4091 96.8545 11.0679 99.3579C11.7267 101.861 10.2774 104.365 7.7739 105.024C5.27039 105.683 2.76682 104.233 2.10803 101.73C1.44922 99.3579 2.8985 96.8545 5.40201 96.064Z" fill="#01457A" fill-opacity="1.000000" fill-rule="nonzero"/>
	<path id="Vector" d="M19.2368 93.4282C21.2132 92.9014 23.3212 94.0874 23.8484 96.0635C24.3755 98.04 23.1896 100.148 21.2132 100.675C19.2368 101.202 17.1288 100.017 16.6016 98.04C16.0745 95.9321 17.2604 93.9556 19.2368 93.4282Z" fill="#01457A" fill-opacity="1.000000" fill-rule="nonzero"/>
	<path id="Vector" d="M31.227 91.1885C32.6762 90.793 34.2577 91.7158 34.6526 93.165C35.0481 94.6143 34.1255 96.1958 32.6762 96.5903C31.227 96.9858 29.6455 96.0635 29.2506 94.6143C28.8556 93.0332 29.6461 91.584 31.227 91.1885Z" fill="#01457A" fill-opacity="1.000000" fill-rule="nonzero"/>
	<path id="Vector" d="M41.3725 89.3438C42.4267 89.0806 43.3488 89.6074 43.6122 90.6616C43.8755 91.7158 43.3488 92.6382 42.2946 92.9014C41.2403 93.1646 40.3182 92.6377 40.0549 91.5835C39.7911 90.6616 40.3182 89.6074 41.3725 89.3438Z" fill="#01457A" fill-opacity="1.000000" fill-rule="nonzero"/>
	<circle id="Ellipse 1" cx="138.000000" cy="105.000000" r="40.000000" fill="url(#paint_linear_0_6104_0)" fill-opacity="1.000000"/>
</svg>
