<svg width="98.318481" height="129.379883" viewBox="0 0 98.3185 129.38" fill="none" xmlns="http://www.w3.org/2000/svg" xmlns:xlink="http://www.w3.org/1999/xlink">
	<desc>
			Created with Pixso.
	</desc>
	<defs/>
	<path id="Vector" d="M59.4027 50.8276C71.2056 50.8276 78.7433 39.4097 79.6562 30.2935C86.1545 28.75 92.358 15.0771 86.7961 16.3018C84.1555 16.8564 82.5872 14.5137 80.0262 10.3042C77.2266 5.71582 73.743 0 66.8047 0C62.5021 0 60.1332 1.08105 58.9581 1.88965C57.2024 1.57568 53.3633 1.32129 50.0345 4.08447C46.6542 6.88965 44.8611 11.8984 44.6458 18.9355C43.7234 19.6377 42.9835 20.8945 42.5435 22.5767C41.7007 25.7739 42.0565 30.062 44.6268 32.5435C44.9312 39.4097 48.274 50.8276 59.4027 50.8276ZM59.4027 46.7612C48.48 46.7612 48.3069 32.1323 48.3069 31.5132C48.3021 30.8154 47.9745 30.1641 47.4407 29.7944C45.3948 28.3804 45.5023 23.8149 46.6635 22.3687C50.3246 22.4795 49.3741 24.8965 51.5044 24.3418C54.8566 23.4639 57.5721 21.1582 59.1967 19.4668C61.6687 22.9463 67.3805 29.4849 75.9108 30.395C74.9838 37.0854 69.4686 46.7612 59.4027 46.7612ZM52.2302 7.35596C55.1329 4.92578 58.8644 6.01611 58.8972 6.021C60.7324 6.59814 60.2876 4.06641 66.8047 4.06641C71.7673 4.06641 74.2861 8.19727 76.9501 12.5728C78.9165 15.7935 81.0981 19.3374 84.3989 20.2339C83.2238 22.8169 81.028 26.4302 77.9005 26.4302C67.3243 26.4302 61.0461 15.3223 60.9852 15.2114C60.3016 13.9775 58.7333 13.9268 57.9514 14.9985C57.9232 15.0405 55.2736 18.6538 51.6171 20.0723C50.9335 19.4668 49.8706 18.8105 48.3536 18.4966C48.5878 13.0767 49.8846 9.32471 52.2302 7.35596Z" fill="#01457A" fill-opacity="1.000000" fill-rule="evenodd"/>
	<path id="Vector" d="M93.974 59.5981C91.6003 55.2959 80.4668 47.2793 78.7627 46.4243C77.7513 45.9204 76.52 46.3228 76.0096 47.3208C75.4994 48.3188 75.902 49.5386 76.9132 50.042C78.5378 50.8599 88.6599 58.4287 90.3735 61.5386C91.4784 63.5532 93.1125 79.0278 94.1191 93.4121C90.9167 94.2715 83.1915 95.9116 77.1099 93.8647C80.1296 86.6934 82.5317 80.8667 83.9503 72.9331C84.1469 71.8335 83.4023 70.7754 82.2881 70.5811C81.155 70.3872 80.1108 71.1221 79.9143 72.2261C78.5331 79.9429 76.0988 85.728 73.519 91.855C71.8571 95.7964 70.1763 99.8027 68.7858 104.363C68.7811 104.377 68.7764 104.386 68.7764 104.396C66.8896 110.592 65.5459 117.818 65.5459 127.351C65.5459 128.469 66.4635 129.379 67.5964 129.379C68.7295 129.379 69.6425 128.469 69.6425 127.351C69.6425 123.992 69.8206 120.96 70.1249 118.161C70.9067 123.498 71.6743 127.458 71.7305 127.735C71.9177 128.705 72.7748 129.379 73.7345 129.379C73.8656 129.379 73.9966 129.366 74.1277 129.343C75.2373 129.13 75.963 128.067 75.7477 126.967C75.7242 126.852 73.5237 115.518 72.7887 105.25C73.6173 102.575 74.5631 100.07 75.5557 97.6074C78.2523 98.5547 81.1409 98.9199 83.9126 98.9199C90.6216 98.9199 96.5629 96.9375 96.9327 96.813C97.8082 96.5171 98.3749 95.6714 98.3141 94.7612C97.9723 89.5767 96.1323 63.5254 93.974 59.5981Z" fill="#01457A" fill-opacity="1.000000" fill-rule="evenodd"/>
	<path id="Vector" d="M70.2273 76.1494C70.2273 73.0947 67.8816 70.0083 62.6333 70.0083C56.3925 70.0083 37.2673 79.0464 26.1246 84.5913C26.429 83.6992 26.6957 82.8862 26.897 82.2441C28.5029 81.939 27.941 81.2456 35.8112 66.9307C37.0612 64.5791 33.7606 62.5415 32.5153 64.8979L25.4645 78.21C17.1964 78.0713 10.4312 72.0601 8.03406 69.6338C12.3834 61.0767 23.5074 42.6123 32.5153 41.3276C38.0023 40.5469 41.1907 41.7202 41.2328 41.7388C42.2159 42.1133 43.2974 41.5728 43.6532 40.519C44.0137 39.4565 43.5128 38.2778 42.525 37.8901C42.3658 37.8252 38.5173 36.3418 32.0143 37.2705C18.6196 39.1792 4.60217 67.8413 4.01233 69.061C3.64246 69.8188 3.75024 70.7476 4.28857 71.3804C4.63977 71.8013 12.2429 80.6914 22.9221 82.1055C22.4119 83.6392 21.7144 85.6167 21.0027 87.1694C19.6356 87.8672 18.6384 88.3848 18.1515 88.6392C17.2104 89.1289 16.8125 90.353 17.2714 91.3696C17.7255 92.3862 18.8536 92.8159 19.804 92.3218C29.5328 87.2573 56.1818 74.1021 62.6333 74.1021C64.389 74.1021 66.4304 74.6382 66.4304 76.1494C66.4304 87.6455 19.9493 107.247 13.2871 107.247C8.58179 107.247 3.79688 100.759 3.79688 97.1362C3.79688 93.1997 5.87097 86.7998 7.11157 82.9741C7.12097 82.7612 8.53979 80.0352 6.31116 79.2036C4.09204 78.3809 3.66113 81.4214 3.52539 81.6245C2.20972 85.6909 0 92.502 0 97.1362C0 103.042 6.22681 110.883 12.7533 111.299C12.2523 115.167 11.3862 122.532 11.3862 127.333C11.3862 128.465 12.2383 129.379 13.2871 129.379C14.3358 129.379 15.1831 128.465 15.1831 127.333C15.1831 122.319 16.2273 113.979 16.6627 110.726C29.828 107.311 70.2273 90.0249 70.2273 76.1494Z" fill="#01457A" fill-opacity="1.000000" fill-rule="evenodd"/>
	<path id="Vector" d="M91.4402 116.386L91.4402 103.651C91.4402 102.552 90.8877 101.655 90.1995 101.655C89.5112 101.655 88.9541 102.552 88.9541 103.651L88.9541 116.386C88.9541 121.196 91.1779 128.021 91.2761 128.308C92.0393 130.632 94.2494 128.792 93.4722 126.441C92.9104 124.722 91.4402 119.565 91.4402 116.386Z" fill="#01457A" fill-opacity="1.000000" fill-rule="evenodd"/>
	<path id="Vector" d="M54.749 68.9365C56.9729 67.4854 60.1379 67.0142 63.0079 67.7026C64.0145 67.9473 65.1008 67.5684 65.4426 66.8613C65.7843 66.1548 65.2506 65.3877 64.2487 65.1475C60.0397 64.1353 55.4092 64.8286 52.1506 66.9541C50.2592 68.1875 52.9185 70.1284 54.749 68.9365Z" fill="#01457A" fill-opacity="1.000000" fill-rule="evenodd"/>
	<path id="Vector" d="M63.1343 92.9268C61.9872 94.4194 59.843 95.0479 57.9375 94.4517C57.2446 94.2349 56.4908 94.5625 56.2567 95.1816C56.0133 95.7964 56.3832 96.4712 57.0714 96.6836C57.8346 96.9194 58.6257 97.0347 59.4028 97.0347C61.7157 97.0347 63.9537 96.0322 65.3114 94.2622C65.7281 93.7217 65.5735 92.9868 64.9742 92.6172C64.3704 92.2524 63.5463 92.3911 63.1343 92.9268Z" fill="#01457A" fill-opacity="1.000000" fill-rule="evenodd"/>
	<path id="Vector" d="M69.7262 97.7876C69.0051 96.854 67.7738 96.7759 66.9731 97.6211C62.1743 102.648 55.1562 103.106 49.9033 98.7349C49.0278 98.0093 47.8105 98.2451 47.1832 99.2661C46.5558 100.283 46.7572 101.701 47.6327 102.431C50.7273 105.005 54.2996 106.276 57.8484 106.276C62.0527 106.276 66.2382 104.497 69.5809 100.994C70.3816 100.158 70.4471 98.7212 69.7262 97.7876Z" fill="#01457A" fill-opacity="1.000000" fill-rule="evenodd"/>
	<path id="Vector" d="M56.1771 57.3936C56.1023 56.2295 55.2968 55.356 54.4072 55.4575C49.1869 56.0122 44.5522 60.1616 42.3143 66.2842C41.3826 68.8345 44.3556 70.6133 45.2778 68.0908C47.0195 63.3315 50.6198 60.106 54.679 59.6719C55.5779 59.5796 56.2473 58.5581 56.1771 57.3936Z" fill="#01457A" fill-opacity="1.000000" fill-rule="evenodd"/>
</svg>
